# xmcd
# Track frame offsets:
# 150
# 16002
# 33762
# 51615
# 69382
# 86520
# 105609
# 120060
# 138441
# 151264
#
# Disc length: 2235 seconds
# Revision: 0
# Processed by: cddbd v1.4PL0 Copyright (c) Steve Scherf et al.
# Submitted via: VisiTrax 2.9.3.171 - For more info visit www.synapsa.com
#
DISCID=7008b90a
DTITLE=Don McAlister, Jr. - Love Gone Right
DYEAR=1996
DGENRE=Country
TTITLE0=Love Gone Right
TTITLE1=Mexican Wind
TTITLE2=Swing Me Back to Texas
TTITLE3=Staying Gone
TTITLE4=Somebody's Back in Town
TTITLE5=Red Rose of a Morning
TTITLE6=Radio Boogie
TTITLE7=It's My Life
TTITLE8=Adios Love
TTITLE9=Stars Spell Dixie, The
EXTD=(p) 1996 Biscuit Boy Music.\n\nSubmitted by Larry@AustinViews.com
EXTT0=
EXTT1=
EXTT2=
EXTT3=
EXTT4=
EXTT5=
EXTT6=
EXTT7=
EXTT8=
EXTT9=
PLAYORDER=
